<svg width="164" height="30" viewBox="0 0 164 30" fill="none" xmlns="http://www.w3.org/2000/svg">
<g clip-path="url(#clip0_24_474)">
<path d="M9.47147 10.6756C9.47147 8.87518 10.7486 8.05228 12.2145 8.05228C13.6805 8.05228 14.9576 8.87518 14.9576 10.6756V21.8925C14.9576 27.697 11.2817 29.9503 6.93384 29.9503C4.64054 29.9503 1.81417 29.2599 0.481497 27.3767C-0.212602 26.3936 -0.212602 24.8582 0.853534 24.1403C1.62537 23.5328 2.64153 23.5052 3.44113 23.715C3.94644 23.8476 4.21297 24.1679 4.61277 24.4054C5.30687 24.803 5.62338 25.0405 6.80057 25.0405C8.32204 25.0405 9.46591 24.1403 9.46591 21.6992V10.6756H9.47147ZM17.412 16.1101C17.412 10.0129 22.3428 8.02467 26.3408 8.02467C30.3389 8.02467 35.2697 10.0129 35.2697 16.1101V21.9146C35.2697 28.0118 30.2611 30 26.3408 30C22.4206 30 17.412 28.0118 17.412 21.9146V16.1101ZM29.8335 15.9499C29.8335 13.6193 28.0233 12.5589 26.3408 12.5589C24.6583 12.5589 22.8481 13.6193 22.8481 15.9499V22.0747C22.8481 24.1955 24.8194 25.4658 26.3408 25.4658C27.8623 25.4658 29.8335 24.1955 29.8335 22.0747V15.9499ZM51.0008 18.5733C53.2941 19.4735 54.3325 21.2242 54.3325 23.2898V23.3174C54.3325 27.824 50.812 29.4974 46.0699 29.4974H41.4333C38.2349 29.4974 37.2743 28.3597 37.2743 25.3111V12.349C37.2743 9.30044 38.2349 8.16274 41.4333 8.16274H45.3258C50.2012 8.16274 53.5384 10.3884 53.5384 14.3428V14.5029C53.5384 16.1487 52.711 17.6289 51.0063 18.5843L51.0008 18.5733ZM42.6827 13.4315V16.6679H45.5868C47.347 16.6679 48.1189 15.6627 48.1189 14.757V14.5692C48.1189 13.6138 47.347 12.6583 45.5868 12.6583H43.4545C42.8437 12.6583 42.6827 12.7909 42.6827 13.426V13.4315ZM42.6827 20.9867V24.2231C42.6827 24.8582 42.8437 24.9908 43.4545 24.9908H46.3864C48.1466 24.9908 48.9185 24.0353 48.9185 23.0799V22.8921C48.9185 21.9367 48.1466 20.9812 46.3864 20.9812H42.6827V20.9867ZM56.3537 10.6977C56.3537 8.86966 57.6308 8.04676 59.1245 8.04676C60.6182 8.04676 61.8954 8.86966 61.8954 10.6977V29.5029H56.3537V10.7032V10.6977ZM77.3043 21.1414V10.5707C77.3043 8.9525 78.4482 8.05228 79.7309 8.05228C81.0136 8.05228 82.1575 8.9525 82.1575 10.5707V27.2717C82.1575 28.8899 80.7471 29.7128 79.5421 29.8177C78.265 29.9227 76.7158 29.4201 76.0494 28.2824L69.5471 16.8281V29.5029H64.694V10.7585C64.694 9.11267 66.1321 8.24006 67.3593 8.10751C68.6364 7.97496 70.1301 8.50515 70.7965 9.64286L77.2988 21.1469L77.3043 21.1414ZM114.869 16.3973H122.149C123.692 16.3973 124.309 17.6675 124.309 18.7279C124.309 19.7883 123.72 20.9812 122.149 20.9812H114.869V24.0851C114.869 24.7202 115.03 24.8527 115.641 24.8527H122.648C124.22 24.8527 124.808 26.0457 124.808 27.1337C124.808 28.2216 124.198 29.4919 122.648 29.4919H113.559C110.36 29.4919 109.399 28.3542 109.399 25.3056V12.349C109.399 9.30044 110.36 8.16274 113.559 8.16274H122.382C123.926 8.16274 124.542 9.43299 124.542 10.521C124.542 11.609 123.953 12.8019 122.382 12.8019H115.635C115.024 12.8019 114.863 12.9345 114.863 13.5696V16.4083L114.869 16.3973ZM132.96 29.4919V12.8516H128.884C127.341 12.8516 126.724 11.5814 126.724 10.4934C126.724 9.40537 127.313 8.21244 128.884 8.21244H142.583C144.154 8.21244 144.743 9.40537 144.743 10.4934C144.743 11.5814 144.132 12.8516 142.583 12.8516H138.507V29.5029H132.966L132.96 29.4919ZM149.169 10.2448C149.702 8.7592 151.168 8.04676 152.606 8.04676C153.966 8.04676 155.377 8.81443 155.887 10.2448L162.845 29.4919H156.981L155.943 26.2058H149.091L148.08 29.4919H142.322L149.174 10.2448H149.169ZM150.473 21.7268H154.549L152.522 15.127L150.468 21.7268H150.473ZM59.1356 5.09205C60.5516 5.09205 61.6955 3.95434 61.6955 2.54602C61.6955 1.1377 60.5516 0 59.1356 0C57.7197 0 56.5758 1.1377 56.5758 2.54602C56.5758 3.95434 57.7197 5.09205 59.1356 5.09205ZM103.997 8.05228C102.897 8.05228 101.92 8.49963 101.481 9.4606L98.8991 14.1992L96.1116 18.9985H96.1061C96.045 19.109 95.9284 19.1808 95.7951 19.1808C95.6619 19.1808 95.5453 19.1035 95.4842 18.9985H95.4786L92.6911 14.1992L90.1091 9.45508C89.6649 8.49963 88.6876 8.04676 87.5937 8.04676C86.1 8.04676 84.8228 8.86966 84.8228 10.6977V29.5029H90.3645V20.1583L92.9466 24.3778C93.5796 25.5265 94.7845 25.6756 95.8007 25.6756C96.8169 25.6756 98.0218 25.5265 98.6548 24.3778L101.237 20.1583V29.5029H106.779V10.7032C106.779 8.87518 105.501 8.05228 104.008 8.05228H103.997Z" fill="url(#paint0_linear_24_474)"/>
</g>
<defs>
<linearGradient id="paint0_linear_24_474" x1="0.00948667" y1="19.0279" x2="162.851" y2="19.0279" gradientUnits="userSpaceOnUse">
<stop offset="0.161458" stop-color="#0025FF"/>
<stop offset="0.552083" stop-color="#A424FF"/>
</linearGradient>
<clipPath id="clip0_24_474">
<rect width="164" height="30" fill="white"/>
</clipPath>
</defs>
</svg>
